<svg id="Calque_1" data-name="Calque 1" xmlns="http://www.w3.org/2000/svg" viewBox="0 0 686.4 587.5"><defs><style>.cls-1{fill:#fff;}.cls-13,.cls-14,.cls-2,.cls-26,.cls-3,.cls-30,.cls-31,.cls-34,.cls-36,.cls-42,.cls-45,.cls-48,.cls-9{fill:none;}.cls-2{stroke:#fff;}.cls-13,.cls-2,.cls-34,.cls-36,.cls-42,.cls-45,.cls-48{stroke-miterlimit:10;}.cls-2,.cls-42{stroke-width:0.05px;}.cls-13,.cls-26,.cls-3,.cls-31,.cls-36,.cls-9{stroke:#000;}.cls-13,.cls-14,.cls-26,.cls-3,.cls-30,.cls-31,.cls-34,.cls-36,.cls-45,.cls-9{stroke-linecap:round;}.cls-14,.cls-26,.cls-3,.cls-30,.cls-31,.cls-9{stroke-linejoin:round;}.cls-13,.cls-3,.cls-30{stroke-width:5px;}.cls-4{fill:#00746b;}.cls-5{fill:#2a5953;}.cls-6{fill:#f26d7d;}.cls-7{fill:#b25963;}.cls-8{fill:#ffd064;}.cls-36,.cls-45,.cls-48,.cls-9{stroke-width:3px;}.cls-10{fill:#2f211e;}.cls-11{fill:#7cc576;}.cls-12{fill:#6f9b64;}.cls-14{stroke:#7cc576;stroke-width:8px;}.cls-15{fill:#fff356;}.cls-16{fill:#cbbb4e;}.cls-17{fill:#6f4d4a;}.cls-18{fill:#c25e69;}.cls-19{fill:#c6996d;}.cls-20{fill:#8f6c5e;}.cls-21{fill:#9ddff9;}.cls-22{fill:#86adc0;}.cls-23{fill:#543e3c;}.cls-24{fill:#3a2b29;}.cls-25{fill:#cba357;}.cls-26{stroke-width:1px;}.cls-27{fill:#94625e;}.cls-28{fill:#74504d;}.cls-29{fill:#a3555c;}.cls-30{stroke:#f26d7d;}.cls-31{stroke-width:2px;}.cls-32{fill:#935a8c;}.cls-33{fill:#674654;}.cls-34{stroke:#935a8c;stroke-width:9px;}.cls-35{fill:#ffca6d;}.cls-37{fill:#716f75;}.cls-38{fill:#685f63;}.cls-39{fill:#76747a;}.cls-40{fill:#d8f5fc;}.cls-41{fill:#93cae0;}.cls-42{stroke:red;}.cls-42,.cls-48{stroke-linecap:square;}.cls-43{fill:#8ebed3;}.cls-44{fill:#fdf155;}.cls-45,.cls-48{stroke:#f90;}.cls-46{fill:#89a9b9;}.cls-47{fill:#cbc4c4;}</style></defs><title>Phaser</title><path class="cls-1" d="M619.49,58.48h0c-6.15-3.55-13-4.6-20.54-3.25h0a29.37,29.37,0,0,0-18.09,10.25h0v0c-3.75,4.55-5.65,9.35-5.65,14.49a172,172,0,0,0-46,12.79c-3.45-14.44-11.3-25-23.44-31.69a9.91,9.91,0,0,0-1-.55L521.48,47a23,23,0,0,0,12.59,4,25.23,25.23,0,0,0,10-1.35,29.56,29.56,0,0,0,8.5-4.8,25.61,25.61,0,0,0,9.8-17.14A22.92,22.92,0,0,0,557,9.3,24.26,24.26,0,0,0,539.42.8h-.1a26.73,26.73,0,0,0-18.84,6.3l0,0a25.48,25.48,0,0,0-9.75,17v0A22.66,22.66,0,0,0,514.18,40L494.34,56.13a82.51,82.51,0,0,0-28.14-3.85q-22,.37-47.13,10-7.87,2.92-15.59,6.6c-1.9-7.35-4.55-13-7.95-16.84q-8-9.37-17.19-4.8c-5.3,2.1-9.6,7.75-12.89,16.89v0q-4.42,12.3-4.9,30.94A319.67,319.67,0,0,0,320.06,132a245.22,245.22,0,0,0-78,14.89H613.79c-1.2-.8-2.45-1.6-3.8-2.35q-12.37-7-32.69-10.1a234.78,234.78,0,0,0-47.93-1.85,138.65,138.65,0,0,0,1.7-15.44,101.25,101.25,0,0,0-.2-14.14,159.59,159.59,0,0,1,45.83-13.09c1.5,3,4.25,6,8.3,8.95.3.2.65.4,1,.65l1.15.65c6.1,3.55,12.94,4.6,20.54,3.25a29.63,29.63,0,0,0,18.14-10.25c4.85-5.85,6.6-12.15,5.35-18.94s-5.1-12-11.7-15.74Zm-98-17.34-.35-.4.35.35v0Z"/><path class="cls-1" d="M669.37,156.49a20.46,20.46,0,0,0-14.09,2.4l0,0,0,0a17.18,17.18,0,0,0-5.7,5.3,160.77,160.77,0,0,0-22.94-1.5q-2.77-9.15-12.74-15.89H242a230.53,230.53,0,0,0-43.53,21.54A45.62,45.62,0,0,1,201,151a18.58,18.58,0,0,0,8.45-2.45l.35-.2.5-.3c.55-.35,1.15-.75,1.7-1.15H175.82a55.6,55.6,0,0,1-5.65,4.25,1.09,1.09,0,0,0-.25.2,48.86,48.86,0,0,1-24.49,7.3,111.48,111.48,0,0,0,8.2-11.75H1.54a43.12,43.12,0,0,0,4.85,11.8q6.07,10.57,23.09,17.74c9.55,4.1,20.79,6.95,33.64,8.6,3.25.45,6.5.75,9.7,1a101.14,101.14,0,0,0-21.24,15.89Q37.85,215.49,38.37,228c-1,.45-2,.9-3,1.4l-10,4.85,10.4,4.25a72.7,72.7,0,0,1,20.19,11.9,12,12,0,0,0,1,4.75V255a13.79,13.79,0,0,0,6.7,7.3h0a13.62,13.62,0,0,0,9.85,1.2h0a11.7,11.7,0,0,0,8.9-13.44l-.15-.7-.45-1.35a.18.18,0,0,1,0-.15l-.15-.45s0,0,0-.1,0-.15-.1-.2a14,14,0,0,0-4.35-5.55l0,0a12.93,12.93,0,0,0-2.3-1.5h0a13.84,13.84,0,0,0-6-1.6A19.5,19.5,0,0,1,67,234.21a8.55,8.55,0,0,1,0-4.2c2.25-6.65,12.3-12.2,30.14-16.54a1.5,1.5,0,0,0,.2.4l5.15,11.7,9.9,18.59c-4.65,2.8-9.3,5.7-13.89,8.65-.1,0-.2.15-.3.2A627,627,0,0,0,42,293.78H641.58a10,10,0,0,0,0-1.25l-.05-1.8-1.25-1.35Q607,252.8,569.86,228.06l-6.3-4.25-1.65,8.8c-11.95-5.5-23.84-10.65-35.79-15.44q37-7.87,61.18-16.89,35.39-13.27,39.63-27.49A150.54,150.54,0,0,1,647,174a15.6,15.6,0,0,0,4.3,9.35l.05,0a20.25,20.25,0,0,0,12.64,6.7,20.66,20.66,0,0,0,14.14-2.45h0c4.7-2.75,7.4-6.5,8-11.3v0c.85-4.75-.55-9.15-4.15-13.19a20.38,20.38,0,0,0-12.64-6.7ZM184.66,176.68l.8.55c-4.65,3.35-9.15,6.85-13.59,10.6l.8,1-.8-1-1-1.3-.7-.9.7.9c1.3-.7,2.55-1.45,3.8-2.2a66.82,66.82,0,0,0,10-7.65Z"/><path class="cls-1" d="M285.57,47.43a14.67,14.67,0,0,0-25-10.4v0h0a14.07,14.07,0,0,0-4.25,10.35,7.38,7.38,0,0,0,0,1c-1.3.9-2.55,1.75-3.8,2.6a32,32,0,0,0-7.85-5.1,35.29,35.29,0,0,0-5.85-2c-7.25-1.75-13.69-.65-19.34,3.35h0q-8.77,5.85-10.2,17.24c-.65.2-1.35.45-2,.7l-1.5.6a17.61,17.61,0,0,0-2.6,1.3l-.1,0A100.06,100.06,0,0,0,187,77.72l-.55.45A63.31,63.31,0,0,0,173,93.06a44.62,44.62,0,0,0-4.3,8.4,66.35,66.35,0,0,0-1.65-17.89q-4.27-19-22.74-29.69C136.18,49,123.39,44.53,106,40.38h0c-9.45-2.15-16.54-3.85-21.34-5-8.35-2-15.44-4-21.29-5.9Q40.2,21.92,26.53,9.9L14.88,0l3.45,14.79C21,26.24,21.18,38.93,18.78,53v0c-1.4,8.15-4.65,20.64-9.8,37.39Q1.71,114.25.44,125.8v0a60.21,60.21,0,0,0,1.1,21H153.63q3-5.1,5.7-10.65A103.67,103.67,0,0,0,167.07,114a18.33,18.33,0,0,0,2.9,7.4l.2.4.3.35a19.71,19.71,0,0,0,14.34,7,16.89,16.89,0,0,0-.55,8.45,63,63,0,0,1-8.45,9.25H212a20,20,0,0,0,6.3-8.2v0l0-.15c.1-.25.2-.55.3-.8a17.16,17.16,0,0,0-.4-13.79,15.3,15.3,0,0,0-1.7-2.9l-.3-.35a7.12,7.12,0,0,0-.55-.6s0,0,0-.1A95.17,95.17,0,0,0,232,106.61h0a46.53,46.53,0,0,0,4.2-4.8,23,23,0,0,0,18-3.55c6.15-4.15,9.55-10.35,10.2-18.49a36.16,36.16,0,0,0,0-5.2,30.8,30.8,0,0,0-1.15-6.35v0a26.45,26.45,0,0,0-1.35-3.8c1.25-1,2.55-2,3.95-3.1a14.39,14.39,0,0,0,4.9.8,14,14,0,0,0,10.3-4.25l.1-.1a14,14,0,0,0,4.25-10.3ZM227.5,62.28a6.67,6.67,0,0,1,1.7-1.65,8.53,8.53,0,0,1,7.45-.85,39.51,39.51,0,0,1-9.15,2.5ZM245,83.72a5.46,5.46,0,0,0-.55.3c.4-.75.85-1.55,1.35-2.3l0-.15.1-.15c.1-.15.2-.35.3-.5l0,0q.9-1.27,1.95-2.55a8.42,8.42,0,0,1-3.25,5.4Zm-.5-.75,0-.2a.54.54,0,0,0,0,.25v0Z"/><path class="cls-1" d="M22.83,310l-1.55,1.35-.1,2Q16.91,373.65,38,433.88A5,5,0,0,0,39.42,436a5.24,5.24,0,0,0,1.8,1l.25,0s.1,0,.2,0l13.89,3.5H523.08c3-4.95,5.85-10,8.45-15.14a134.7,134.7,0,0,0,7.75-17.39l9.25,1.55,5.35-6.35,3.6,37.34h13l17.64-1.3h.4l.25,0,.7-.15,39.73-11.9L619,362.75l15.14-12.1,0,0,.1-.1a4.58,4.58,0,0,0,1.6-2.55,187.62,187.62,0,0,0,5.7-54.18H42q-9.67,7.8-19.19,16.19Z"/><path class="cls-1" d="M131,463.41s0,0-.1,0l0,0a12.59,12.59,0,0,0-6.35,9.35v0a15.36,15.36,0,0,0,2,11.1v0a14.62,14.62,0,0,0,2.2,2.95l-3.55,9.7A137.83,137.83,0,0,0,111,490h0c-1.7-.7-3.35-1.35-5-1.95l-6-2.2-3.5,34.39Q84.45,534.81,83.4,548.08v0C82.35,559,86.55,568.57,96.1,577q14.84,13.12,32.39,9.9,16.42-2.85,27.74-19.09l35.64-10-4.5-5.85c-3.15-4-6.3-7.9-9.55-11.65l13.29-6.4a16.65,16.65,0,0,0,2.5,1.25,15,15,0,0,0,10.25.4h0a12.38,12.38,0,0,0,7.5-5.65Q258.08,552.63,316,552.68q58.78,0,107.66-23.59l8.15-4.1a249.31,249.31,0,0,0,48.13-33.74q26.39-23.47,43.18-50.63H55.57l50.28,12.69,10.8-11.95a195.31,195.31,0,0,0,14.34,22Zm19.74,22.69c1.7,1.7,3.45,3.4,5.2,5,2.25,2.15,4.5,4.2,6.85,6.25l-12.45,16.19,0,0s-.15-.1-.2-.15c-.25-.2-.45-.35-.6-.5h0c-3.65-2.95-8.85-6.65-15.54-11.15l3.65-10a12.47,12.47,0,0,0,8.85-1.6h0a12.73,12.73,0,0,0,4.4-4Zm19.69,17.69c5.45,4.4,11.1,8.5,16.89,12.35a11,11,0,0,0-1.15,1.8v0a10.45,10.45,0,0,0-1,7.6l-14.34,6.95-.3-.3c-4.1-4.3-8.3-8.35-12.54-12.15l12.45-16.29Z"/><polygon class="cls-1" points="557.46 440.62 557.56 441.57 570.46 440.62 557.46 440.62 557.46 440.62"/><path class="cls-2" d="M170.87,186.53l-.7-.9m2.5,3.25-.8-1"/><path class="cls-3" d="M658.27,170.78a157.7,157.7,0,0,0-42.73-2.55"/><path class="cls-4" d="M585.55,195.57q40.56-15.14,36.49-30.34c-1.75-6.45-6.55-11.9-14.49-16.34s-18.14-7.55-31-9.5q-41-6.22-99.46,4.85l-10.5,78.47q77.89-11.92,119-27.14Z"/><path class="cls-5" d="M618.79,166.53c-1.65-5.35-6.3-9.65-13.94-13-7.5-3.25-17.44-5.35-29.84-6.2q-39.51-2.92-95.76,9.95l-10.1,67.17q75-14.69,114.5-30,39.06-15.22,35.14-27.89Z"/><path class="cls-3" d="M466.6,222.71q77.89-11.92,119-27.14,40.56-15.14,36.49-30.34c-1.75-6.45-6.55-11.9-14.49-16.34s-18.14-7.55-31-9.5q-41-6.22-99.46,4.85"/><path class="cls-6" d="M678.27,166.48a17.31,17.31,0,0,0-20.54-3.25,10.9,10.9,0,0,0-5.6,7.75,10.74,10.74,0,0,0,2.95,9,17.12,17.12,0,0,0,20.54,3.25,10.47,10.47,0,0,0,5.6-7.7,10.59,10.59,0,0,0-2.95-9.1Z"/><path class="cls-7" d="M677.57,171.43a10.64,10.64,0,0,0-6.4-3.35,10.85,10.85,0,0,0-7.15,1.2,7.16,7.16,0,0,0-3.7,5.1,7,7,0,0,0,1.95,6,11.3,11.3,0,0,0,13.59,2.1,6.75,6.75,0,0,0,3.65-5,7,7,0,0,0-1.95-6Z"/><path class="cls-3" d="M668.57,161.44a16,16,0,0,0-10.85,1.8,10.9,10.9,0,0,0-5.6,7.75,10.74,10.74,0,0,0,2.95,9,17.12,17.12,0,0,0,20.54,3.25,10.47,10.47,0,0,0,5.6-7.7,10.59,10.59,0,0,0-2.95-9.1,15.79,15.79,0,0,0-9.7-5Z"/><path class="cls-8" d="M592.75,163.23c0-4.15-2-7.65-5.95-10.6a25.51,25.51,0,0,0-28.64,0c-3.95,2.95-5.9,6.45-5.9,10.6s1.95,7.65,5.9,10.6a25.51,25.51,0,0,0,28.64,0c3.95-2.95,5.95-6.45,5.95-10.6Z"/><path class="cls-9" d="M586.8,152.64a25.51,25.51,0,0,0-28.64,0c-3.95,2.95-5.9,6.45-5.9,10.6s1.95,7.65,5.9,10.6a25.51,25.51,0,0,0,28.64,0c3.95-2.95,5.95-6.45,5.95-10.6s-2-7.65-5.95-10.6Z"/><path class="cls-10" d="M576.26,162.14a4.51,4.51,0,0,0-2.2-3.7,9.92,9.92,0,0,0-10.65,0,4.26,4.26,0,0,0,0,7.4,9.92,9.92,0,0,0,10.65,0,4.51,4.51,0,0,0,2.2-3.7Z"/><path class="cls-9" d="M574.06,158.44a9.92,9.92,0,0,0-10.65,0,4.26,4.26,0,0,0,0,7.4,9.92,9.92,0,0,0,10.65,0,4.21,4.21,0,0,0,0-7.4Z"/><path class="cls-3" d="M587.05,83.77Q553.54,86.39,525.48,100m-1.9-61.23L492.24,64.22"/><path class="cls-11" d="M466.3,57.28c-14.14.25-29.34,3.5-45.48,9.65a193.13,193.13,0,0,0-20.89,9.3c-1.65-9.55-4.4-16.49-8.2-20.94-3.55-4.15-7.35-5.35-11.35-3.5s-7.55,6.55-10.25,14q-4.42,12.52-4.65,31.84a314.91,314.91,0,0,0-43.18,39.23q55.1,64.77,174.28,78.62c4.25-9.55,8.35-19.39,12.25-29.64q15.67,1.2,26.24-2.65,9.52-3.45,11.4-9.45c1.25-3.95-.4-7.6-4.95-10.85-5-3.65-12.54-5.95-22.64-6.95,4.2-14.84,6.6-27.84,7.2-39.08q2-37.63-22.79-51.43-15.52-8.62-37-8.2Z"/><path class="cls-12" d="M493.59,74.72q-28.41-10.12-65.27,7.35T367.24,137.3q52.33,21.44,129.35,70.92c2.9-4.75,5.15-8.7,6.8-11.95a95.12,95.12,0,0,0,5.25-12.1c7.95.55,15-.3,21.14-2.65,6.55-2.5,9.5-5.85,8.8-10q-1.27-7.57-25.74-8.1a232.8,232.8,0,0,0,3.75-25.69A128.22,128.22,0,0,0,516,108q-1.72-10.72-5.55-17.39a44.74,44.74,0,0,0-8-10.15,27,27,0,0,0-8.85-5.7Z"/><path class="cls-13" d="M496.59,215.51c4.25-9.55,8.35-19.39,12.25-29.64q15.67,1.2,26.24-2.65,9.52-3.45,11.4-9.45c1.25-3.95-.4-7.6-4.95-10.85-5-3.65-12.54-5.95-22.64-6.95,4.2-14.84,6.6-27.84,7.2-39.08q2-37.63-22.79-51.43-15.52-8.62-37-8.2c-14.14.25-29.34,3.5-45.48,9.65a193.13,193.13,0,0,0-20.89,9.3c-1.65-9.55-4.4-16.49-8.2-20.94-3.55-4.15-7.35-5.35-11.35-3.5s-7.55,6.55-10.25,14q-4.42,12.52-4.65,31.84a314.91,314.91,0,0,0-43.18,39.23"/><path class="cls-14" d="M459.65,76a42.07,42.07,0,0,0-27.19,7.65q-12.37,8.7-15.09,21.84c-1.75,8.8.2,16.49,5.95,23.09s13.49,10.35,23.39,10.95a41.43,41.43,0,0,0,27.24-7.75q12.37-8.62,15-21.79c1.8-8.75-.15-16.49-5.85-23.14S469.55,76.67,459.65,76Z"/><path class="cls-15" d="M489.19,109.51c1.8-8.75-.15-16.49-5.85-23.14S469.8,76.17,459.9,75.52a42.07,42.07,0,0,0-27.19,7.65q-12.37,8.7-15.09,21.84c-1.75,8.8.2,16.49,5.95,23.09S437.06,138.44,447,139a41.43,41.43,0,0,0,27.24-7.75q12.37-8.62,15-21.79Z"/><path class="cls-16" d="M438.86,92.26c-7,4.85-11.35,10.95-13,18.29a21.34,21.34,0,0,0,4.55,19.34c4.7,5.6,11.2,8.65,19.44,9.15a35.2,35.2,0,0,0,22.94-6.5q10.5-7.2,12.89-18.24c1.65-7.35.15-13.79-4.5-19.39s-11.2-8.5-19.49-9a35.63,35.63,0,0,0-22.84,6.4Z"/><path class="cls-9" d="M459.9,75.52a42.07,42.07,0,0,0-27.19,7.65q-12.37,8.7-15.09,21.84c-1.75,8.8.2,16.49,5.95,23.09S437.06,138.44,447,139a41.43,41.43,0,0,0,27.24-7.75q12.37-8.62,15-21.79c1.8-8.75-.15-16.49-5.85-23.14S469.8,76.17,459.9,75.52Z"/><path class="cls-15" d="M440.06,83.57a9.41,9.41,0,0,0-4,5.7,6.59,6.59,0,0,0,1.4,6,8.09,8.09,0,0,0,6,2.8,11.23,11.23,0,0,0,7.15-2,9.26,9.26,0,0,0,4-5.7,6.66,6.66,0,0,0-1.4-6,8.13,8.13,0,0,0-6-2.85,11.22,11.22,0,0,0-7.1,2Z"/><path class="cls-17" d="M445.41,98.26a22.21,22.21,0,0,0-12.1,2.8c-3.65,2.15-5.9,4.8-6.7,8a8.22,8.22,0,0,0,2.65,8.45c2.55,2.45,6,3.8,10.4,4a22,22,0,0,0,12.1-2.85c3.65-2.1,5.85-4.75,6.65-8a8.3,8.3,0,0,0-2.6-8.5c-2.55-2.45-6-3.75-10.4-4Z"/><path class="cls-9" d="M433.31,101.06c-3.65,2.15-5.9,4.8-6.7,8a8.22,8.22,0,0,0,2.65,8.45c2.55,2.45,6,3.8,10.4,4a22,22,0,0,0,12.1-2.85c3.65-2.1,5.85-4.75,6.65-8a8.3,8.3,0,0,0-2.6-8.5c-2.55-2.45-6-3.75-10.4-4a22.21,22.21,0,0,0-12.1,2.8Z"/><path class="cls-6" d="M539.07,5.8A22.2,22.2,0,0,0,523.58,11a20.83,20.83,0,0,0-7.95,13.84,18,18,0,0,0,4.3,14.54A18.84,18.84,0,0,0,534,46.08,21.91,21.91,0,0,0,549.47,41a20.64,20.64,0,0,0,8-13.89,18,18,0,0,0-4.3-14.54A19.42,19.42,0,0,0,539.07,5.8Z"/><path class="cls-18" d="M551.72,20.24a14.16,14.16,0,0,0-10.15-4.85,15.84,15.84,0,0,0-11.15,3.75,15,15,0,0,0-5.75,9.95,13,13,0,0,0,3.1,10.5,13.75,13.75,0,0,0,10.15,4.8,15.75,15.75,0,0,0,11.15-3.65,14.9,14.9,0,0,0,5.75-10,13,13,0,0,0-3.1-10.5Z"/><path class="cls-3" d="M523.58,11a20.83,20.83,0,0,0-7.95,13.84,18,18,0,0,0,4.3,14.54A18.84,18.84,0,0,0,534,46.08,21.91,21.91,0,0,0,549.47,41a20.64,20.64,0,0,0,8-13.89,18,18,0,0,0-4.3-14.54A19.42,19.42,0,0,0,539.07,5.8,22.2,22.2,0,0,0,523.58,11Z"/><path class="cls-6" d="M599.85,60.13a24.83,24.83,0,0,0-15.19,8.55c-3.75,4.55-5.15,9.5-4.2,14.79s4,9.45,9.15,12.35A26.74,26.74,0,0,0,622,90c3.8-4.55,5.2-9.5,4.25-14.84s-4-9.4-9.2-12.3a24.62,24.62,0,0,0-17.19-2.7Z"/><path class="cls-18" d="M605.95,70.52a19.42,19.42,0,0,0-12,3.45c-3.55,2.45-5.6,5.5-6.15,9.2a10.79,10.79,0,0,0,3.3,9.65A16,16,0,0,0,602,97.26,18.89,18.89,0,0,0,614,93.91c3.6-2.5,5.65-5.6,6.2-9.25A10.83,10.83,0,0,0,616.84,75a16.09,16.09,0,0,0-10.9-4.5Z"/><path class="cls-3" d="M584.65,68.67c-3.75,4.55-5.15,9.5-4.2,14.79s4,9.45,9.15,12.35A26.74,26.74,0,0,0,622,90c3.8-4.55,5.2-9.5,4.25-14.84s-4-9.4-9.2-12.3a26.56,26.56,0,0,0-32.39,5.85Z"/><path class="cls-12" d="M388.68,69.27c-1.8-2.15-3.75-2.55-5.8-1.2q-6.82,4.57-9.3,26.44l19.74-13.29c-1.15-5.7-2.7-9.7-4.65-11.95Z"/><path class="cls-19" d="M486.14,196.92Q422.49,136.8,329.56,136.8T168.92,196.92Q101.3,257.12,98.5,342.21T159.32,487.5Q223,547.71,316,547.68T476.55,487.5q67.7-60.2,70.52-145.29T486.14,196.92Z"/><path class="cls-20" d="M367.09,137.74a350.17,350.17,0,0,1,44.83,26,214.24,214.24,0,0,1,30.44,25.69q-60.13-30.14-120.2-25.64-53.9,4-99.71,34.89a211.58,211.58,0,0,0-67.32,72.57Q130.54,314.87,132,358.71c0,1.45,0,3.35-.1,5.8-.15,2.75-.2,4.7-.2,5.8l-20.54,6.9-8,28.49,25,45,15.19-16.54A188.13,188.13,0,0,0,159.67,461a254.75,254.75,0,0,0,21.84,25.39q53.9,55.33,134.35,55.33t140.39-55.33a247.42,247.42,0,0,0,30.24-32.94,211.2,211.2,0,0,0,21.69-35.89l20.39,6.15,11.5-32-22.89-5.75a200.83,200.83,0,0,0,3.3-27.24q2.32-43.41-5.25-73.47a136.7,136.7,0,0,0-23.49-49.53l6.8-27q-53.9-59.23-131.45-71Z"/><path class="cls-3" d="M329.56,136.8q-92.89,0-160.64,60.13T98.5,342.21Q95.72,427.3,159.32,487.5T316,547.68q92.89,0,160.59-60.18t70.52-145.29q2.77-85.09-60.93-145.29T329.56,136.8Z"/><path class="cls-21" d="M254.39,60.78a27.66,27.66,0,0,0-15.44-11.6c-6.25-1.85-11.75-1.1-16.59,2.25s-7.55,8.2-8.15,14.64a28.12,28.12,0,0,0,5.2,18.64c4,5.9,9.15,9.75,15.39,11.55s11.85,1.15,16.69-2.15,7.5-8.25,8-14.74a27.59,27.59,0,0,0-5.15-18.59ZM220.7,67c.35-4.7,2.25-8.2,5.7-10.55s7.4-2.8,11.85-1.45a20.76,20.76,0,0,1,11.25,8.6,20.92,20.92,0,0,1,3.9,13.59c-.3,4.75-2.15,8.25-5.6,10.6s-7.4,2.8-11.95,1.4a20.65,20.65,0,0,1-11.2-8.6A21,21,0,0,1,220.7,67Z"/><polygon class="cls-22" points="259.13 69.07 256.04 62.58 251.39 66.97 252.79 74.82 259.13 69.07 259.13 69.07"/><path class="cls-9" d="M238.94,49.18c-6.25-1.85-11.75-1.1-16.59,2.25s-7.55,8.2-8.15,14.64a28.12,28.12,0,0,0,5.2,18.64c4,5.9,9.15,9.75,15.39,11.55s11.85,1.15,16.69-2.15,7.5-8.25,8-14.74a27.59,27.59,0,0,0-5.15-18.59,27.66,27.66,0,0,0-15.44-11.6ZM220.7,67a21,21,0,0,0,3.95,13.59,20.65,20.65,0,0,0,11.2,8.6c4.55,1.4,8.5.95,11.95-1.4s5.3-5.85,5.6-10.6a20.92,20.92,0,0,0-3.9-13.59A20.76,20.76,0,0,0,238.24,55c-4.45-1.35-8.4-.9-11.85,1.45S221,62.33,220.7,67Z"/><path class="cls-23" d="M206.55,120.05a12.85,12.85,0,0,0-9.85,1.55,14.76,14.76,0,0,0-6.8,8,12.58,12.58,0,0,0-.2,8.95,60.91,60.91,0,0,1-16.84,16.74A67.17,67.17,0,0,0,184.21,170a44.33,44.33,0,0,0,10.3,7.35,52.91,52.91,0,0,1,3.2-31.69,12.72,12.72,0,0,0,9.5-1.6,14.6,14.6,0,0,0,6.75-8.1,12.35,12.35,0,0,0-.25-9.9,10.39,10.39,0,0,0-7.15-6Z"/><path class="cls-8" d="M92.85,182q-23.24,9.22-37.78,23.49c-9.2,9-12.94,17.69-11.2,25.84A45.21,45.21,0,0,1,62,229.16Q65,215.36,100,207.62a243.1,243.1,0,0,0,31.24,56.48l75-31a273.61,273.61,0,0,1-43-48.53A59.15,59.15,0,0,0,184.21,170a67.17,67.17,0,0,1-11.35-14.64q-13.42,8.62-31,8.3-.75,37.86,16.94,83.47a257.44,257.44,0,0,1-38.38-30.84A199.62,199.62,0,0,1,92.85,182Z"/><path class="cls-23" d="M61.21,248.4a6.55,6.55,0,0,0,.3,4.75,9.23,9.23,0,0,0,4.4,4.75,9,9,0,0,0,6.4.8,6.77,6.77,0,0,0,4.7-9.35,9.06,9.06,0,0,0-4.4-4.75,8.76,8.76,0,0,0-6.3-.8c-3.9-5.35-5.35-10.25-4.35-14.64a45.21,45.21,0,0,0-18.09,2.15,40.09,40.09,0,0,0-6.35,2.55A78.36,78.36,0,0,1,61.21,248.4Z"/><path class="cls-23" d="M122.54,160.84,97,172.28a70.23,70.23,0,0,1-4.2,9.7,199.62,199.62,0,0,0,27.54,34.29,257.44,257.44,0,0,0,38.38,30.84q-17.69-45.58-16.94-83.47a86,86,0,0,1-19.29-2.8Z"/><path class="cls-24" d="M63.61,248.4c-1.75,3.45-1.15,6.15,1.9,8.2s6.7,2,10.85-.2c2.75-8.1-.45-12.25-9.5-12.49-4.1-5.4-5.95-10.3-5.5-14.69H52.52q1,9.67,11.1,19.19Z"/><path class="cls-24" d="M211.55,122.2l-4.5-3.25-14.49,6.25,5.75,2.5c-3.2,2.8-4.45,6.9-3.75,12.25a100.71,100.71,0,0,1-8.3,12.45,40.55,40.55,0,0,1-9.75,9l8.1,9.95c1.85-.6,2.95-.55,3.2.1a61.81,61.81,0,0,1,8.25-27.74q24.22,4.8,15.49-21.49Z"/><path class="cls-25" d="M52.52,229.21h8.85q1.42-15,38-22.29l19.64,39,6.25-3.65,48.63-25.44q-12.22-20.24-14.54-33.14,22.79-5.25,25.29-12.35l-8.1-9.95a40.23,40.23,0,0,1-20.29,8.1,42.58,42.58,0,0,1-21.39-3.8L94.6,183.93c-13,7.25-23.49,14.94-31.24,23.19q-11.92,12.67-10.85,22.09Z"/><path d="M207.2,117.65h0a14.85,14.85,0,0,0-11.7,1.8,17.09,17.09,0,0,0-7.9,9.35,14.59,14.59,0,0,0-.6,9.4,58.63,58.63,0,0,1-15.44,15c-8.55,5.45-18.39,8.1-29.64,7.9a85.63,85.63,0,0,1-18.69-2.7l-.85-.2L95,170.48l-.35,1a62.82,62.82,0,0,1-3.65,8.5q-23.17,9.3-37.73,23.69Q39.6,217.21,41.07,229.66a46,46,0,0,0-4.65,1.95l-5,2.45,5.2,2.15A74.72,74.72,0,0,1,58.46,249.3a9.15,9.15,0,0,0,.75,4.8v0a11.56,11.56,0,0,0,5.55,6h0a11.49,11.49,0,0,0,8.1,1,9,9,0,0,0,6.2-4.9v0a9.27,9.27,0,0,0,.25-7.9h0a12,12,0,0,0-11.85-7.3c-2.75-4.15-3.75-7.95-3-11.4q3.07-11.92,34.14-19.14a246.25,246.25,0,0,0,30.74,55l1.15,1.55,80.42-33.24-2.9-2.65a274,274,0,0,1-40.88-45.63,61,61,0,0,0,17.29-12.15,45.64,45.64,0,0,0,9,6.1l4.45,2.3-.9-5a50.19,50.19,0,0,1,2.35-28.44,15.52,15.52,0,0,0,9.15-2.2,17.42,17.42,0,0,0,7.85-9.45v0A14.75,14.75,0,0,0,216,125h0a13,13,0,0,0-8.8-7.35ZM56.81,207.27q14.24-14,37-22.94l.45-.2.4-.15.45-.85a73,73,0,0,0,4-9l23.69-10.65a88,88,0,0,0,19,2.65h0q17.54.3,31.09-7.85a67.94,67.94,0,0,0,8.55,11,58.23,58.23,0,0,1-19.19,12.94l-2.75,1.25,1.7,2.45a270.62,270.62,0,0,0,40.48,46.33L132.13,261a240.86,240.86,0,0,1-29.74-54.33l-.8-2-2.1.45Q63.74,213,59.76,227.56a46.69,46.69,0,0,0-13.69,1.55q-.9-10.35,10.75-21.84Zm7.5,38,.9,1.3,1.75-.35a6.15,6.15,0,0,1,4.55.6h0a6.44,6.44,0,0,1,3.25,3.45,4.46,4.46,0,0,1,0,3.75h0a4.21,4.21,0,0,1-2.9,2.25,6.92,6.92,0,0,1-4.65-.6,6.51,6.51,0,0,1-3.2-3.45v0h0a4.19,4.19,0,0,1-.2-3l.45-1.65-1.15-1a83.27,83.27,0,0,0-19.79-13l3.4-1.45a43.39,43.39,0,0,1,12.69-1.6c-.5,4.55,1.2,9.45,5.1,14.79ZM198,123.8a10.44,10.44,0,0,1,8-1.3,8.06,8.06,0,0,1,5.5,4.6v0a10,10,0,0,1,.15,7.95,12.44,12.44,0,0,1-5.65,6.8,10.65,10.65,0,0,1-7.7,1.35l-2-.45-.8,1.85a54,54,0,0,0-4.15,27.89,48.4,48.4,0,0,1-7.8-5.4,69,69,0,0,1-8-10.5A63.8,63.8,0,0,0,191.76,140l.75-1-.45-1.3a10.23,10.23,0,0,1,.2-7.2v0a12.12,12.12,0,0,1,5.7-6.7Z"/><path class="cls-23" d="M141.83,166.13h0a88,88,0,0,1-19-2.65L99.1,174.13a73,73,0,0,1-4,9l-.45.85-.4.15a198.65,198.65,0,0,0,26.14,32.14,257.44,257.44,0,0,0,38.38,30.84q-17.09-44.08-16.94-81Z"/><path class="cls-26" d="M141.83,166.13q-.15,36.89,16.94,81a257.44,257.44,0,0,1-38.38-30.84,198.65,198.65,0,0,1-26.14-32.14"/><path class="cls-27" d="M267.38,50.68l-2.65-2.25c-14.89,11.45-27.19,17.69-36.84,18.84,0,7.75,3.9,12.94,11.55,15.64,3.95-8.85,13.54-18.74,28.89-29.59l-.95-2.65Z"/><path class="cls-6" d="M227.9,67.27q-7.12.22-10.5.6a33.85,33.85,0,0,0-11.95,3.75c-12.84,6.8-22.29,14.84-28.24,24.14q-8.7,13.57-3,23,7.27,8.25,22.89,4,16-4.35,31.44-19.74a34.14,34.14,0,0,0,7.2-10.25c.85-2.15,2.1-5.45,3.7-9.9-7.65-2.7-11.5-7.9-11.55-15.64Z"/><path class="cls-28" d="M262,56v-3.6Q241.44,71.1,230.3,75.82l8.2,7.7c4.25-7.25,12-16.39,23.49-27.49Z"/><path class="cls-29" d="M184.36,116.3c3.65,4.15,9.45,5.2,17.34,3q12.15-3.3,20-10.5c5.25-4.85,8.4-8.25,9.5-10.3s2.35-4.55,3.9-7.5a29,29,0,0,1,3.35-7.55l-8.2-7.7a18.32,18.32,0,0,1-5.3,1.5,25.76,25.76,0,0,0-8.65,1.55q-3.22,1.35-12.15,8.1a143.9,143.9,0,0,0-16.54,14.44c-5,5.15-6.15,10.15-3.3,14.89Z"/><path class="cls-9" d="M239.44,82.92c-7.65-2.7-11.5-7.9-11.55-15.64"/><path class="cls-3" d="M267.38,50.68l.95,2.65C253,64.17,243.39,74.07,239.44,82.92c-1.6,4.45-2.85,7.75-3.7,9.9a34.14,34.14,0,0,1-7.2,10.25q-15.37,15.37-31.44,19.74-15.59,4.27-22.89-4-5.7-9.45,3-23c5.95-9.3,15.39-17.34,28.24-24.14a33.85,33.85,0,0,1,11.95-3.75q3.37-.37,10.5-.6c9.65-1.15,21.94-7.4,36.84-18.84l2.65,2.25Z"/><polyline class="cls-30" points="190.76 96.31 184.76 101.81 191.26 104.56 195.01 112.61 200.01 103.56 212.5 102.81 206.5 96.06 206.5 86.56 198.26 90.31"/><path class="cls-6" d="M280.58,47.43a9.64,9.64,0,0,0-9.65-9.65,9.56,9.56,0,0,0-9.65,9.65,9.64,9.64,0,0,0,9.65,9.65,9.73,9.73,0,0,0,9.65-9.65Z"/><path class="cls-3" d="M277.73,40.58a9.32,9.32,0,0,0-6.8-2.8,9.56,9.56,0,0,0-9.65,9.65,9.64,9.64,0,0,0,9.65,9.65,9.73,9.73,0,0,0,9.65-9.65,9.36,9.36,0,0,0-2.85-6.85Z"/><polygon class="cls-8" points="206.31 86.07 202.11 88.02 186.56 102.16 191.06 104.06 194.81 112.11 199.81 103.06 212.3 102.31 206.31 95.56 206.31 86.07 206.31 86.07"/><polygon class="cls-1" points="202.11 88.02 198.06 89.81 191.06 85.82 190.56 95.81 184.56 101.31 186.56 102.16 202.11 88.02 202.11 88.02"/><polygon class="cls-31" points="202.11 88.02 198.06 89.81 191.06 85.82 190.56 95.81 184.56 101.31 186.56 102.16 191.06 104.06 194.81 112.11 199.81 103.06 212.3 102.31 206.31 95.56 206.31 86.07 202.11 88.02 202.11 88.02"/><path class="cls-21" d="M259.53,79.37a26.5,26.5,0,0,0,0-4.45h-6.15a17.66,17.66,0,0,1,0,2.3c-.3,4.75-2.15,8.25-5.6,10.6s-7.4,2.8-11.95,1.4a20.65,20.65,0,0,1-11.2-8.6A21,21,0,0,1,220.7,67c.35-4.7,2.25-8.2,5.7-10.55s7.4-2.8,11.85-1.45a3.92,3.92,0,0,1,.7.25v-6.1c-6.25-1.85-11.75-1.1-16.59,2.25s-7.55,8.2-8.15,14.64a28.12,28.12,0,0,0,5.2,18.64c4,5.9,9.15,9.75,15.39,11.55s11.85,1.15,16.69-2.15,7.5-8.25,8-14.74Z"/><path class="cls-9" d="M253.44,74.92a17.66,17.66,0,0,1,0,2.3c-.3,4.75-2.15,8.25-5.6,10.6s-7.4,2.8-11.95,1.4a20.65,20.65,0,0,1-11.2-8.6A21,21,0,0,1,220.7,67c.35-4.7,2.25-8.2,5.7-10.55s7.4-2.8,11.85-1.45a3.92,3.92,0,0,1,.7.25m0-6.1c-6.25-1.85-11.75-1.1-16.59,2.25s-7.55,8.2-8.15,14.64a28.12,28.12,0,0,0,5.2,18.64c4,5.9,9.15,9.75,15.39,11.55s11.85,1.15,16.69-2.15,7.5-8.25,8-14.74a26.5,26.5,0,0,0,0-4.45"/><path class="cls-32" d="M162.17,84.67c-2.6-11.25-9.4-20-20.39-26.49-7.85-4.6-20.19-8.9-36.94-12.94-9.45-2.15-16.54-3.85-21.39-5-8.5-2-15.69-4-21.64-6-16.24-5.3-29.09-12.15-38.63-20.59,2.85,12,3,25.44.5,40.18-1.4,8.35-4.7,21-9.95,38-4.75,15.49-7.5,27-8.35,34.49Q3.51,144,10.68,156.14c3.65,6.15,10.6,11.4,20.74,15.69q13.79,5.92,32.29,8.25a142.86,142.86,0,0,0,33.49.65q16.42-1.72,24.49-7.1,20.92-13.94,33.09-39.53,12.67-26.69,7.4-49.43Z"/><path class="cls-13" d="M141.78,58.18c-7.85-4.6-20.19-8.9-36.94-12.94-9.45-2.15-16.54-3.85-21.39-5-8.5-2-15.69-4-21.64-6-16.24-5.3-29.09-12.15-38.63-20.59,2.85,12,3,25.44.5,40.18-1.4,8.35-4.7,21-9.95,38-4.75,15.49-7.5,27-8.35,34.49Q3.51,144,10.68,156.14c3.65,6.15,10.6,11.4,20.74,15.69q13.79,5.92,32.29,8.25a142.86,142.86,0,0,0,33.49.65q16.42-1.72,24.49-7.1,20.92-13.94,33.09-39.53,12.67-26.69,7.4-49.43c-2.6-11.25-9.4-20-20.39-26.49Z"/><path class="cls-33" d="M156.77,101.61a41.36,41.36,0,0,0-16-29.49c-9.55-7.65-18.49-11.9-26.94-12.64a233.71,233.71,0,0,1-26.44-4.1,163.21,163.21,0,0,1-25.89-7.65c-8-3.15-17.14-8.35-27.29-15.49q3.22,15.52-1.15,34.29c-1.6,7-5.1,17.69-10.55,32q-7.35,19.57-8.95,29.09-2.4,15,3.65,25.59,4.72,8,15,15.39c6.85,4.85,16,8,27.54,9.5A230.14,230.14,0,0,0,92.9,180a54.83,54.83,0,0,0,28.69-8.55q12.82-8.17,24.89-30c8-14.54,11.45-27.79,10.3-39.83Z"/><path class="cls-34" d="M126.49,62.87q14.69,2.92,20.59,16.29c4.5,10.25,3.7,22.94-2.4,38a179.23,179.23,0,0,1-10,21.34c-.85,1.5-1.7,2.9-2.55,4.15a49.45,49.45,0,0,1-12.3,13.24,32.06,32.06,0,0,1-3.25,2,40.86,40.86,0,0,1-18.24,4.75c-1.2,0-2.45.1-3.7,0q-13-.3-31.94-6.1c-15.39-4.65-26.39-11.5-33-20.44q-9-12.07-4.25-24.14T45.67,95.41q17.32-5,40.48,2.25,1.12-19,14.24-28.84a31.24,31.24,0,0,1,26.09-5.95Z"/><path class="cls-35" d="M126,61.88A31.23,31.23,0,0,0,99.9,67.82Q86.78,77.64,85.65,96.66q-23.17-7.27-40.48-2.25Q29.65,99,24.88,111.06t4.25,24.14c6.65,8.95,17.64,15.79,33,20.44a192.34,192.34,0,0,1,21.59-15.49,186.22,186.22,0,0,1,20.44-10.9,180.56,180.56,0,0,1,22.24-8.5c5.8-1.8,11.7-3.35,17.74-4.6,6.1-15,6.9-27.74,2.4-38Q140.66,64.82,126,61.88Z"/><path class="cls-1" d="M144.18,116.15c-6,1.25-11.95,2.8-17.74,4.6l7.7,16.74a179.23,179.23,0,0,0,10-21.34Z"/><path class="cls-1" d="M83.75,140.14a192.34,192.34,0,0,0-21.59,15.49q19,5.77,31.94,6.1c1.25,0,2.5,0,3.7,0l-14-21.54Z"/><path class="cls-1" d="M131.58,141.64c.85-1.25,1.7-2.65,2.55-4.15l-7.7-16.74a180.56,180.56,0,0,0-22.24,8.5l15.09,25.64a49.45,49.45,0,0,0,12.3-13.24Z"/><path class="cls-1" d="M116,156.94a32.07,32.07,0,0,0,3.25-2L104.2,129.25a186.22,186.22,0,0,0-20.44,10.9l14,21.54A40.86,40.86,0,0,0,116,156.94Z"/><path class="cls-36" d="M62.16,155.64c-15.39-4.65-26.39-11.5-33-20.44q-9-12.07-4.25-24.14T45.17,94.41q17.32-5,40.48,2.25,1.12-19,14.24-28.84A31.23,31.23,0,0,1,126,61.88q14.69,2.92,20.59,16.29c4.5,10.25,3.7,22.94-2.4,38m0,0c-6,1.25-11.95,2.8-17.74,4.6M83.75,140.14a192.34,192.34,0,0,0-21.59,15.49m72-18.14c-.85,1.5-1.7,2.9-2.55,4.15a49.45,49.45,0,0,1-12.3,13.24m-21.49,6.8c-1.2,0-2.45.1-3.7,0q-13-.3-31.94-6.1m57.13-.75a32.07,32.07,0,0,1-3.25,2,40.86,40.86,0,0,1-18.24,4.75m6.4-32.44,15.09,25.64m24.89-38.73a179.24,179.24,0,0,1-10,21.34m-7.7-16.74,7.7,16.74m-50.38,2.65,14,21.54m28.64-40.93a180.56,180.56,0,0,0-22.24,8.5m0,0a186.23,186.23,0,0,0-20.44,10.9"/><path class="cls-17" d="M54.32,116.85a6.22,6.22,0,0,0-2.4,4.9,6.12,6.12,0,0,0,2.4,4.85,9,9,0,0,0,5.9,2,8.78,8.78,0,0,0,5.85-2,6,6,0,0,0,2.45-4.85,6.12,6.12,0,0,0-2.45-4.9,9,9,0,0,0-5.85-1.95,9.21,9.21,0,0,0-5.9,1.95Z"/><path class="cls-36" d="M51.92,121.75a6.12,6.12,0,0,0,2.4,4.85,9,9,0,0,0,5.9,2,8.78,8.78,0,0,0,5.85-2,6,6,0,0,0,2.45-4.85,6.12,6.12,0,0,0-2.45-4.9,9,9,0,0,0-5.85-1.95,9.21,9.21,0,0,0-5.9,1.95,6.22,6.22,0,0,0-2.4,4.9Z"/><path class="cls-17" d="M126,96.36a8.73,8.73,0,0,0,1.2-6,6,6,0,0,0-3-4.45,6.17,6.17,0,0,0-5.4-.4,9,9,0,0,0-4.7,4,8.74,8.74,0,0,0-1.15,6,6.17,6.17,0,0,0,3,4.55,6,6,0,0,0,5.4.3,9.12,9.12,0,0,0,4.65-4Z"/><path class="cls-36" d="M127.19,90.31a6,6,0,0,0-3-4.45,6.17,6.17,0,0,0-5.4-.4,9,9,0,0,0-4.7,4,8.74,8.74,0,0,0-1.15,6,6.17,6.17,0,0,0,3,4.55,6,6,0,0,0,5.4.3,9.12,9.12,0,0,0,4.65-4,8.73,8.73,0,0,0,1.2-6Z"/><path class="cls-29" d="M275.43,45a5.67,5.67,0,0,0-7.9,0,5.36,5.36,0,0,0-1.65,3.95,5.47,5.47,0,0,0,1.65,4,5.55,5.55,0,0,0,7.9,0,5.47,5.47,0,0,0,1.65-4A5.36,5.36,0,0,0,275.43,45Z"/><path class="cls-3" d="M166.37,540.18l25.89-12.49m-43.63-3.75,27.19-35.49M126.39,507.7l8.15-22.34"/><path class="cls-6" d="M146.88,517.24Q126,500.52,104.4,492.7l-3,29.49,12.1,9.65,28,22.34,11.6,9.25,30.24-8.5a220.15,220.15,0,0,0-36.49-37.68Z"/><path class="cls-21" d="M153.13,563.42l-11.6-9.25c-4.45,5.95-9.25,9.55-14.44,10.9a16.44,16.44,0,0,1-14.69-3.1c-4.75-3.55-6.8-8.35-6.25-14.39q.67-7.95,7.35-15.74l-12.1-9.65c-7.95,9.25-12.3,18-13,26.34q-1.2,13.87,11,24.69,13,11.47,28.19,8.7c10.15-1.85,18.69-8,25.54-18.49Z"/><path class="cls-37" d="M113.49,531.84q-6.67,7.8-7.35,15.74c-.55,6,1.5,10.85,6.25,14.39a16.44,16.44,0,0,0,14.69,3.1c5.2-1.35,10-4.95,14.44-10.9l-28-22.34Z"/><path class="cls-22" d="M149.43,559.73l-9.6-7.65-23.14-18.44-10-8c-6.55,7.65-10.1,14.89-10.75,21.79-.65,7.65,2.35,14.44,9.1,20.39q10.72,9.45,23.29,7.15t21.09-15.24Z"/><path class="cls-18" d="M146.63,558.68l25.24-7.75a151.49,151.49,0,0,0-58.23-48.28l-3.75,24.49,36.74,31.54Z"/><path class="cls-21" d="M100,555.68a5.6,5.6,0,0,0,1.75-4.1,5.71,5.71,0,0,0-1.75-4.15,5.55,5.55,0,0,0-4.1-1.7,5.8,5.8,0,0,0-5.85,5.85,5.55,5.55,0,0,0,1.7,4.1,5.71,5.71,0,0,0,4.15,1.75,5.6,5.6,0,0,0,4.1-1.75Z"/><path class="cls-38" d="M113.49,531.84q-6.67,7.8-7.35,15.74c-.55,6,1.5,10.85,6.25,14.39a16.44,16.44,0,0,0,14.69,3.1c5.2-1.35,10-4.95,14.44-10.9l-28-22.34Z"/><path class="cls-36" d="M153.13,563.42l-11.6-9.25m-28-22.34-12.1-9.65m12.1,9.65q-6.67,7.8-7.35,15.74c-.55,6,1.5,10.85,6.25,14.39a16.44,16.44,0,0,0,14.69,3.1c5.2-1.35,10-4.95,14.44-10.9m0,0-28-22.34"/><path class="cls-13" d="M146.88,517.24a220.15,220.15,0,0,1,36.49,37.68l-30.24,8.5c-6.85,10.5-15.39,16.64-25.54,18.49s-19.54-1-28.19-8.7q-12.22-10.8-11-24.69c.75-8.35,5.1-17.09,13-26.34l3-29.49q21.67,7.8,42.48,24.54Z"/><path class="cls-37" d="M129.39,473.71a11.46,11.46,0,0,0,7.4,12.69,8.24,8.24,0,0,0,7-.6,8.09,8.09,0,0,0,4-5.85,11.1,11.1,0,0,0-1.45-7.7,10.77,10.77,0,0,0-5.95-5,8.3,8.3,0,0,0-7.15.55,8.07,8.07,0,0,0-3.95,5.9Z"/><path class="cls-37" d="M171.87,477.06a8.47,8.47,0,0,0,.5,7.35,11,11,0,0,0,6,5.4,11.33,11.33,0,0,0,8.1.2,8.49,8.49,0,0,0,5.4-5,8.58,8.58,0,0,0-.5-7.4,11.87,11.87,0,0,0-14.09-5.6,8.56,8.56,0,0,0-5.4,5.1Z"/><path class="cls-37" d="M195.61,516.24a8,8,0,0,0-5,4,6.26,6.26,0,0,0,0,5.8,8.79,8.79,0,0,0,4.85,4.4,9.92,9.92,0,0,0,6.9.25,7.67,7.67,0,0,0,4.9-3.9,6.31,6.31,0,0,0,.1-5.9,8.79,8.79,0,0,0-4.85-4.3,10,10,0,0,0-6.9-.35Z"/><path class="cls-3" d="M172.37,484.41a11,11,0,0,0,6,5.4,11.33,11.33,0,0,0,8.1.2,8.49,8.49,0,0,0,5.4-5,8.58,8.58,0,0,0-.5-7.4,11.87,11.87,0,0,0-14.09-5.6,8.56,8.56,0,0,0-5.4,5.1,8.47,8.47,0,0,0,.5,7.35Zm18.24,35.84a6.26,6.26,0,0,0,0,5.8,8.79,8.79,0,0,0,4.85,4.4,9.92,9.92,0,0,0,6.9.25,7.67,7.67,0,0,0,4.9-3.9,6.31,6.31,0,0,0,.1-5.9,8.79,8.79,0,0,0-4.85-4.3,10,10,0,0,0-6.9-.35,8,8,0,0,0-5,4Zm-59.83-38.83a10.87,10.87,0,0,0,6,5,8.24,8.24,0,0,0,7-.6,8.09,8.09,0,0,0,4-5.85,11.1,11.1,0,0,0-1.45-7.7,10.77,10.77,0,0,0-5.95-5,8.3,8.3,0,0,0-7.15.55,8.07,8.07,0,0,0-3.95,5.9,10.81,10.81,0,0,0,1.4,7.7Z"/><path class="cls-19" d="M287.67,154.34q-18.67-3.07-40.83,4.85t-34.59,22.19c-8.35,9.55-11,18.39-8,26.64s10.7,13.39,23.14,15.44,26,.4,40.78-4.9,26.34-12.69,34.64-22.14,11-18.39,8-26.64-10.7-13.39-23.14-15.44Z"/><path class="cls-20" d="M262.33,211.62c13.14-3.95,23.64-9.65,31.54-17s10.8-14.29,8.85-20.74-8.25-10.65-18.84-12.4-22.54-.65-35.69,3.3-23.69,9.65-31.54,17-10.8,14.24-8.85,20.74,8.25,10.6,18.84,12.4,22.54.65,35.69-3.3Z"/><path d="M639,291.73l-.65-.65q-33-36.36-69.92-60.93L565.31,228l-1.55,8.25a772.85,772.85,0,0,0-82.27-32.89h-.1a1.78,1.78,0,0,0-.5-.1s0,0-.1,0a803.75,803.75,0,0,0-136.55-20l-2.6-.15-1,51.13a1.1,1.1,0,0,0,0,.4l6.65,48.13,15.79,9.8-19.89-.25L293.57,188.47l-61.53,10-8.15,37.24-18.64-31.24a2.33,2.33,0,0,0-1.3-1.1,2.48,2.48,0,0,0-1.7,0,494.13,494.13,0,0,0-58.48,25.89s0,0-.1,0h0q-22.12,11.55-43.78,25.49l-.1,0,0,0a634.74,634.74,0,0,0-75.22,56.93l-.75.65-.1,1q-4.27,59.75,16.69,119.5a2.61,2.61,0,0,0,.7,1,3.6,3.6,0,0,0,1,.6L105,450.52l24-26.64a4.7,4.7,0,0,0,.6-1.1,2.44,2.44,0,0,0,0-1.2L124,400l36.74,22.39,36.79-9.5.1,0,35.64-9.25,43.73-6.9a2.48,2.48,0,0,0,1.3-.65,3,3,0,0,0,.75-1.2l13.79-53.43,13.59,44.28,35.69-8.8v4.7l99.41,5.1,76.37,14.59c.15,0,.35,0,.5.1l29.19,5.55,8.25-9.8,4,41.78,28.39-2.1a2.58,2.58,0,0,0,.55-.1l37.58-11.25-10-63.77,16.34-13a2.58,2.58,0,0,0,.85-1.3A187.36,187.36,0,0,0,639,292.63v-.9Zm-10.2,53.58-1.45,1.15-12,9.55-2.8-17.34-5.5-3,4,25.29v.2l9.6,60.83-31.44,9.4-1.75.55-1.25.1-21.94,1.6-4-41.78L581,367.35l2.75-3.25.2-.25c.1-.15.2-.25.3-.4l-4.75-2.1L578.16,363l-22.34,26.39,0,0-10.15,12-23-4.4,23-40.23.35-.65a4.4,4.4,0,0,0,.25-.75v0l.3-1.45,6.85-36c0-.1,0-.2.1-.3a2.43,2.43,0,0,0,0-.6l14.59-76.67v0a.18.18,0,0,1,0-.15l.7-3.75a372.65,372.65,0,0,1,65.27,57.33A182.33,182.33,0,0,1,629.14,344c-.1.45-.2.85-.3,1.3ZM202.06,208.82l2,3.5,18.24,30.59-17.54,80.72-2.15,10-6,27.69,0,.25a3,3,0,0,0,0,1.15.3.3,0,0,0,0,.2,3.23,3.23,0,0,0,.45.8l.45.5,30.64,35.54-30.69,7.95L161.17,377l-1.65-1.4,0,1a2.46,2.46,0,0,1-.6,1.8,2.31,2.31,0,0,1-1.7.9,2.46,2.46,0,0,1-1.8-.6l.25.25,35.89,30.24L161.52,417l-40.23-24.49,0,0h0l-1.35-.85-2.45-1.5c0-.25-.15-.5-.2-.75-.8-3.75-1.55-7.5-2.3-11.15l0-.1a.18.18,0,0,0,0-.15v-.1q-4.2-20.77-6.8-41.08a529,529,0,0,1-4.4-78.42q19.27-12.37,38.93-22.79l1.8,43.43,5-1.9-1.9-44.08a475.82,475.82,0,0,1,53.93-23.94c.2-.1.45-.2.7-.3ZM28.58,314.92a636.58,636.58,0,0,1,70-53.28,535,535,0,0,0,4.4,75.27c0,.15,0,.35.1.55s.1.7.15,1.1.1,1,.2,1.6q2.25,16.87,5.55,33.89L75.71,357l-2.8-1.45.2.1a3.36,3.36,0,0,1,.7.75,2.46,2.46,0,0,1,.3.85,2.52,2.52,0,0,1-.2,1.6c0,.1-.15.2-.2.3a2.6,2.6,0,0,1-1.6,1h0a2.54,2.54,0,0,1-1.8-.4l-.2-.15a2.75,2.75,0,0,0,.45.35l3.3,1.7,36.39,18.69c.8,3.95,1.65,7.9,2.5,11.9a1.55,1.55,0,0,0,.45.9,2.33,2.33,0,0,0,.7.7l4,2.4,6.55,25.29L103.3,444.92l-55.88-14-2.85-.75a4.92,4.92,0,0,1-.25-.8q-19.57-57.2-15.74-114.4Zm244-36.69s0,0,0,0l-2.35,7.4,19.59,47.73L274.58,392l-.75.1-40.13,6.35-30.89-35.79-1.1-1.25v0l.35-1.6L227.45,243v-.1l8.75-40,54.53-8.9,48.43,101.31,1.9,33.49.2,3,.85,15v24.89l-32.29,7.95-11.3-37.14-.45-1.45,0-.1a.18.18,0,0,0,0-.15l-.4-1.15-2.8-7.4,0,0v-.1l0,0-22.09-53.88ZM346.3,239l-.65-4.5,0-.4.95-45.73a798.5,798.5,0,0,1,131.4,19.29l4.95,1.45a774,774,0,0,1,79.92,32.19l-7.6,40-.95,5L549,313.87l-.95,4.95L541.57,353l-.2,1-1,1.8-23,40.23-71.17-13.54,26.94-34.29a2.62,2.62,0,0,0,.5-1.35l.25-3.65.2-3,2.9-43a1.93,1.93,0,0,0-.15-1,2.49,2.49,0,0,0-.55-.85l-.15-.2-12.94-13.44,15.39-32.44-2.9-.7h0L461,279.34l-2.35,4.75,13.29,13.84-3.2,47.28,0,.55-1.9,2.45-26.29,33.44-93.36-4.8V346.56l0-1.35-2.8-47.93,69.37.95-5.2-5-35.64-.5-20.84-12.94L346.3,239Z"/><polygon class="cls-1" points="583.75 364.1 581 367.35 586.3 431.98 587.55 431.88 589.3 431.33 583.75 364.1 583.75 364.1"/><polygon class="cls-23" points="586.3 431.98 581 367.35 560.31 391.79 564.36 433.58 586.3 431.98 586.3 431.98"/><polygon class="cls-39" points="578.16 363 545.57 356.86 522.58 397.09 545.62 401.49 555.76 389.44 555.82 389.39 578.16 363 578.16 363"/><polygon class="cls-39" points="612.59 338.66 615.39 356.01 627.39 346.46 612.59 338.66 612.59 338.66"/><path class="cls-1" d="M627.39,346.46l1.45-1.15c.1-.45.2-.85.3-1.3l-18.89-10.1-3.8-1.9.65,3.6,5.5,3,14.79,7.8Z"/><path class="cls-1" d="M546.17,355.46a4.39,4.39,0,0,1-.25.75l-.35.65L578.16,363l1.35-1.65,0-1.15-33-6.25-.3,1.45v0Z"/><path class="cls-23" d="M610.94,311.13v-5.95l-34.59-23.24,3.1,78.27,0,1.15,4.75,2.1.3-1.35V362l-2.8-70.42,29.19,19.54Z"/><path class="cls-21" d="M610.94,305.18v5.95l-29.19-19.54,2.8,70.42v.1l-.3,1.35c-.1.15-.2.25-.3.4l-.2.25,5.55,67.22,31.44-9.4-9.6-60.83v-.2l-4-25.29-.65-3.6,3.8,1.9L629.14,344a182.33,182.33,0,0,0,4.95-50.28,372.64,372.64,0,0,0-65.27-57.33l-.7,3.75a.18.18,0,0,0-.05.15v0L553.47,317a2.43,2.43,0,0,1,0,.6c0,.1,0,.2-.1.3l-6.85,36,33,6.25-3.1-78.27,34.59,23.24Z"/><path class="cls-40" d="M204.11,212.32l-2-3.5c-.25.1-.5.2-.7.3q-4.72,58.7,1.3,124.5l2.15-10a722.15,722.15,0,0,1-.7-111.31Z"/><path class="cls-23" d="M222.35,242.9l-18.24-30.59a722.15,722.15,0,0,0,.7,111.31l17.54-80.72Z"/><polygon class="cls-39" points="228.2 399.74 197.56 364.2 161.17 377.05 197.51 407.69 228.2 399.74 228.2 399.74"/><path class="cls-1" d="M117.39,390.14l2.45,1.5L155.73,379l-.25-.25a2.55,2.55,0,0,1-.75-1l-.15-.6v0l0-.85-37.34,13.19c0,.25.15.5.2.75Z"/><path class="cls-39" d="M121.24,392.49l0,0L161.52,417l30.09-7.8L155.73,379l-35.89,12.64,1.35.85h0Z"/><path class="cls-23" d="M154.53,317l-4.9,1.9,4.9,57.28,0,.85v0l.15.6a2.55,2.55,0,0,0,.75,1,2.46,2.46,0,0,0,1.8.6,2.31,2.31,0,0,0,1.7-.9,2.46,2.46,0,0,0,.6-1.8l0-1-.1-1.2L154.53,317Z"/><path class="cls-1" d="M196.61,362.7a3,3,0,0,1,0-1.15l0-.25-37.19,13.14.1,1.2,1.65,1.4,36.39-12.84-.45-.5a3.23,3.23,0,0,1-.45-.8.3.3,0,0,1,0-.2Z"/><path class="cls-21" d="M149.33,277.14l-5,1.9-1.8-43.43Q122.81,246,103.6,258.4a529,529,0,0,0,4.4,78.42q2.62,20.32,6.8,41.08v.1a.18.18,0,0,1,0,.15l0,.1c.75,3.65,1.5,7.4,2.3,11.15l37.34-13.19-4.9-57.28,4.9-1.9,4.9,57.43,37.19-13.14,6-27.69q-6-65.82-1.3-124.5a475.82,475.82,0,0,0-53.93,23.94l1.9,44.08Z"/><path class="cls-1" d="M103.4,340.16c-.1-.55-.15-1.1-.2-1.6s-.1-.75-.15-1.1,0-.4-.1-.55L72.66,355.36l.25.2,2.8,1.45,27.69-16.84Z"/><path class="cls-39" d="M108.94,374.05q-3.3-17-5.55-33.89L75.71,357l33.24,17Z"/><path class="cls-21" d="M98.55,261.65a636.57,636.57,0,0,0-70,53.28q-3.82,57.2,15.74,114.4l33.74-22.84L70.51,360a2.75,2.75,0,0,1-.45-.35L44.22,341.66l29.09-19,.55,5.5L53.17,341.81l19.49,13.54,30.29-18.44a535,535,0,0,1-4.4-75.27Z"/><path class="cls-23" d="M73.81,356.41a3.36,3.36,0,0,0-.7-.75l-.2-.1-.25-.2L53.17,341.81l20.69-13.69-.55-5.5-29.09,19,25.84,17.94.2.15a2.54,2.54,0,0,0,1.8.4h0a2.6,2.6,0,0,0,1.6-1c0-.1.15-.2.2-.3a2.52,2.52,0,0,0,.2-1.6,2.46,2.46,0,0,0-.3-.85Z"/><path class="cls-1" d="M73.81,361.66l-3.3-1.7,7.55,46.53L44.32,429.33a4.91,4.91,0,0,0,.25.8l2.85.75,32.49-22,.6-.4a1.74,1.74,0,0,0,.55-.65.18.18,0,0,1,0-.15,1.66,1.66,0,0,0,0-.7L81,406l-7.2-44.38Z"/><path class="cls-23" d="M112.69,392.24c-.85-4-1.7-7.95-2.5-11.9L73.81,361.66,81,406l43.38,15.49-6.55-25.29-4-2.4a2.33,2.33,0,0,1-.7-.7,1.55,1.55,0,0,1-.45-.9Z"/><polygon class="cls-39" points="103.3 444.92 124.39 421.53 79.91 408.84 47.42 430.88 103.3 444.92 103.3 444.92"/><path class="cls-41" d="M81,406l.15.9a1.66,1.66,0,0,1,0,.7.18.18,0,0,0,0,.15,1.74,1.74,0,0,1-.55.65l-.6.4,44.48,12.69L81,406Z"/><path class="cls-1" d="M341.25,331.87l-.2-3-43.48,10.9.4,1.15a.18.18,0,0,1,0,.15l0,.1.45,1.45,42.73-10.7Z"/><polygon class="cls-39" points="342.1 346.86 341.25 331.87 298.52 342.56 309.81 379.7 342.1 371.75 342.1 346.86 342.1 346.86"/><path d="M267.83,280h0l-.1-.25a.54.54,0,0,0,0,.25Z"/><polygon class="cls-21" points="254.09 348.61 254.44 348.41 254.24 348.06 254.09 348.61 254.09 348.61"/><path class="cls-1" d="M270.18,285.59l-1.95-4.65L251.44,347l-49.38,12.74-.35,1.6v0l1.1,1.25L251.89,350l1.15-.3c.1,0,.2,0,.3-.1a2.17,2.17,0,0,0,.35-.3,1.29,1.29,0,0,0,.4-.65l.15-.55,15.94-62.48Z"/><path class="cls-41" d="M254.44,348.41l-.35.2a1.29,1.29,0,0,1-.4.65,2.18,2.18,0,0,1-.35.3c-.1,0-.2,0-.3.1l-1.15.3,21.94,42.13.75-.1-20.14-43.58Z"/><polygon class="cls-23" points="254.24 348.06 254.44 348.41 274.58 391.99 289.77 333.32 270.18 285.59 254.24 348.06 254.24 348.06"/><polygon class="cls-39" points="251.89 349.96 202.81 362.65 233.69 398.44 273.83 392.09 251.89 349.96 251.89 349.96"/><path class="cls-23" d="M303.62,258.7l-1.8-4.7-39.93,7.85,5.9,17.89.1.25h0s0,.1.1.15l.3.8,1.95,4.65,2.35-7.4s0,0,0,0l0,0-4.15-12.54,35.24-6.95Z"/><path class="cls-21" d="M301.82,254l1.8,4.7-35.24,6.95,4.15,12.54,0,0,22.09,53.88,0,0v.1l0,0,2.8,7.4,43.48-10.9-1.9-33.49L290.72,194l-54.53,8.9-8.75,40v.1L202.06,359.76,251.44,347l16.79-66.07-.3-.8s0-.1-.1-.15a.54.54,0,0,1,0-.25l-5.9-17.89L301.82,254Z"/><polygon class="cls-1" points="540.32 355.86 541.37 354.06 541.57 353.01 474.05 340.21 473.85 343.26 540.32 355.86 540.32 355.86"/><path class="cls-39" d="M517.33,396.09l23-40.23-66.47-12.59-.25,3.65a2.62,2.62,0,0,1-.5,1.35l-26.94,34.29,71.17,13.54Z"/><path class="cls-1" d="M468.65,345.76l0-.55H347l0,1.35v1.65H466.75l1.9-2.45Z"/><polygon class="cls-39" points="440.46 381.65 466.75 348.21 347.1 348.21 347.1 376.85 440.46 381.65 440.46 381.65"/><polygon class="cls-23" points="422.52 239.3 422.57 239.3 422.52 239.3 422.52 239.3"/><path class="cls-1" d="M414.87,235.11v3.4l7.65.8,53.08,9.15a2,2,0,0,1-.3-1.3l.15-1.75L418,235.51l-3.1-.4Z"/><polygon class="cls-23" points="422.57 239.3 422.52 239.3 414.87 238.5 458.6 284.09 460.95 279.34 422.57 239.3 422.57 239.3"/><polygon class="cls-39" points="351.95 279.74 372.79 292.68 408.42 293.18 346.3 239 351.95 279.74 351.95 279.74"/><path class="cls-21" d="M414.87,238.5v-3.4l3.1.4,57.48,9.9,2.5-37.73a798.5,798.5,0,0,0-131.4-19.29l-.95,45.73,0,.4,68,59.28,0,4.45-69.37-.95,2.8,47.93H468.7l3.2-47.28L458.6,284.09,414.87,238.5Z"/><polygon class="cls-1" points="345.65 234.51 346.3 239 408.42 293.18 413.62 298.23 413.67 293.78 345.65 234.51 345.65 234.51"/><polygon class="cls-23" points="515.13 265.34 515.13 270.59 554.27 286.29 555.22 281.29 515.13 265.34 515.13 265.34"/><polygon class="cls-23" points="513.18 304.33 513.18 309.58 548.07 318.82 549.02 313.87 513.18 304.33 513.18 304.33"/><path class="cls-21" d="M476.1,295.08l.15.2a2.49,2.49,0,0,1,.55.85,1.93,1.93,0,0,1,.15,1l-2.9,43L541.57,353l6.5-34.19-34.89-9.25v-5.25L549,313.87l5.25-27.59-39.13-15.69v-5.25l40.08,15.94,7.6-40a774,774,0,0,0-79.92-32.19l-3.7,40.28-3.1,45.68Z"/><polygon class="cls-39" points="475.6 248.5 475.6 248.45 422.52 239.3 422.57 239.3 460.95 279.34 475.6 248.5 475.6 248.5"/><path class="cls-23" d="M482.89,209.12l-4.95-1.45-2.5,37.73-.15,1.75a2,2,0,0,0,.3,1.3v0h0l2.9.7-15.39,32.44,12.94,13.44,3.1-45.68,3.7-40.28Z"/><line class="cls-42" x1="422.52" y1="239.3" x2="422.57" y2="239.3"/><path class="cls-43" d="M365,194.77c-4.55-.4-9-.75-13.54-1l-.8,38.53,8.85,7.7,25.34-43.18c-6.65-.75-13.24-1.45-19.84-2Z"/><path class="cls-43" d="M321.21,269.44l-27.54,47,5.65,13.74c0,.1,0,.2.1.3l1.25,3.25,4.5-1.1,25.49-43.48-9.45-19.74Z"/><path class="cls-43" d="M405.18,279.79l9.95,8.65a4.77,4.77,0,0,1,2,1.3,5.4,5.4,0,0,1,1,1.4,5,5,0,0,1,1.35,3.15,4.53,4.53,0,0,1-.95,3.3v.7a5.31,5.31,0,0,1-1.5,3.55,4.82,4.82,0,0,1-3.6,1.4l-21.94-.3-21.89,37.29h42l35.59-60.68-26.09-27.19-16,27.44Z"/><path class="cls-43" d="M472.7,211.62c-8.2-1.85-16.39-3.6-24.54-5.2L432.61,233l38.13,6.6h0v-.15l1.9-27.79Z"/><path class="cls-43" d="M48.87,304.33c-5.15,4.2-10.3,8.55-15.44,13-.25,4.75-.4,9.45-.45,14.14l15.89-27.14Z"/><path class="cls-43" d="M232.39,243.65a1.1,1.1,0,0,0,0,.4l-12.89,59.18,60-102.31-39.13,6.4-7.95,36.34Z"/><path class="cls-43" d="M192.36,357.51l5.25-24.19q-2.77-30.21-3.2-59l-33.64,57.38,3,35.89,28.54-10.1Z"/><path class="cls-43" d="M119.69,376.9a.18.18,0,0,1,0-.15v-.1l0,0a3.18,3.18,0,0,0-.1-.35l.2.65Z"/><polygon class="cls-43" points="147.63 354.11 133.43 378.3 149.23 372.75 147.63 354.11 147.63 354.11"/><path class="cls-43" d="M43.37,409.29c1.1,4,2.3,8.1,3.6,12.2l25.64-17.39L67,369,43.37,409.29Z"/><path class="cls-43" d="M81.55,344.11l16-9.8c-.6-4.95-1.15-9.9-1.6-14.84L81.55,344.11Z"/><polygon class="cls-43" points="443.66 340.21 464.05 340.21 466.65 300.98 443.66 340.21 443.66 340.21"/><path class="cls-43" d="M590,285l10.35-17.64a341.6,341.6,0,0,0-28.09-22.49l-13.79,72.57a13.47,13.47,0,0,1-.2,1.4s0,0,0,.1a3.18,3.18,0,0,0-.1.35l-5.65,29.74,20.19-34.44-1.3-32.49a4.63,4.63,0,0,1,1.15-3.4,4.79,4.79,0,0,1,3.15-1.75,4.61,4.61,0,0,1,3.5.8L590,285Z"/><path class="cls-43" d="M573,241.05a.3.3,0,0,1,0-.2l0,.25v0Z"/><path class="cls-43" d="M617.09,283.19l-8.45,14.39,5.1,3.45a4.62,4.62,0,0,1,2.1,3.15,5.09,5.09,0,0,1-.75,3.8l-2.8,4.15a4.62,4.62,0,0,1-3.15,2.1,5.09,5.09,0,0,1-3.8-.75l-4.3-2.95L588.4,332.12q.52,33,.45,33.24l4.9,59.43,21.34-6.4-8.9-56.53a2.43,2.43,0,0,1,0-.6l-4-24.84a28.49,28.49,0,0,1-.45-5.7,4,4,0,0,1,.6-2,3.58,3.58,0,0,1,1.45-1.15,3.24,3.24,0,0,1,1.9-.45,7.23,7.23,0,0,1,1.65.3,28.55,28.55,0,0,1,5.3,2.1l1.35.75a2.71,2.71,0,0,1,.9.5l10.85,5.8a177.37,177.37,0,0,0,3.45-40.73c-4-4.35-8-8.55-12-12.59Z"/><path class="cls-43" d="M482.54,273.89l-1.35,19.84-1.85,42.43,58.23,11,4.7-24.79L511.38,314a4.53,4.53,0,0,1-3-2.3,4.79,4.79,0,0,1-.5-3.8L508,303a4.95,4.95,0,0,1,6.1-3.55l31,8.2,3.45-18.24-35.34-14.19c-.65-.25-1.3-1.25-2-3s-.95-2.85-.7-3.5l.25-4.65a4.93,4.93,0,0,1,2.65-2.75,9.21,9.21,0,0,1,2.75-.45,7.68,7.68,0,0,1,2.7.4l32.64,13.09,5.7-30.19q-22.87-10.57-45.83-19.44l-28.79,49.13Z"/><path class="cls-43" d="M195.51,221.36q.07-2.4.3-4.8a468.3,468.3,0,0,0-43.23,19.49l1.75,40.88a4.88,4.88,0,0,1-1.3,3.6,5,5,0,0,1-3.5,1.6l-5,1.4a4.56,4.56,0,0,1-3.55-1.3,4.73,4.73,0,0,1-1.65-3.45L138,247.7l-28.74,49.08q1,19.49,3.65,39.38c.85,6.9,1.9,13.84,3,20.79l79.52-135.6Z"/><polygon class="cls-44" points="317.86 477.21 329.46 515.74 337.95 502.9 357.49 528.09 358.14 507.55 385.23 522.89 384.58 507.4 424.82 524.19 399.48 492.25 421.12 484.31 399.08 470.21 415.97 456.97 388.48 456.67 394.93 442.87 351.05 444.72 317.86 477.21 317.86 477.21"/><polygon class="cls-45" points="317.86 477.21 351.05 444.72 394.93 442.87 388.48 456.67 415.97 456.97 399.08 470.21 421.12 484.31 399.48 492.25 424.82 524.19 384.58 507.4 385.23 522.89 358.14 507.55 357.49 528.09 337.95 502.9 329.46 515.74 317.86 477.21 317.86 477.21"/><path class="cls-21" d="M269.73,390.94a22.2,22.2,0,0,0,.95,21.14q5.85,10.27,19,14a40.27,40.27,0,0,0,26.09-1.3q12.82-5,17.74-15.79a22.06,22.06,0,0,0-.9-21.14q-5.85-10.27-19-14a39.65,39.65,0,0,0-26,1.25c-8.55,3.35-14.49,8.6-17.84,15.84Z"/><path class="cls-3" d="M270.68,412.09q5.85,10.27,19,14a40.27,40.27,0,0,0,26.09-1.3q12.82-5,17.74-15.79a22.06,22.06,0,0,0-.9-21.14q-5.85-10.27-19-14a39.65,39.65,0,0,0-26,1.25c-8.55,3.35-14.49,8.6-17.84,15.84a22.2,22.2,0,0,0,.95,21.14Z"/><path class="cls-46" d="M280.38,394.84a16.44,16.44,0,0,0,.7,15.59c2.85,5,7.55,8.55,14,10.4a29.88,29.88,0,0,0,19.24-1c6.3-2.45,10.65-6.3,13.09-11.65a16.16,16.16,0,0,0-.65-15.59c-2.85-5-7.55-8.5-14-10.35a29.4,29.4,0,0,0-19.19.9c-6.3,2.45-10.7,6.35-13.14,11.7Z"/><path class="cls-21" d="M300.57,384.1a5,5,0,0,0,3.1,2.35,6.68,6.68,0,0,0,4.3-.25,5,5,0,0,0,2.95-2.6,3.54,3.54,0,0,0-.15-3.45,5.14,5.14,0,0,0-3.15-2.35,6.52,6.52,0,0,0-4.25.2,5,5,0,0,0-2.95,2.65,3.54,3.54,0,0,0,.15,3.45Z"/><path class="cls-6" d="M382.08,416.18q-23.32-6.37-44.53-2.7a286.7,286.7,0,0,1,31,26.69l13.49-24Z"/><path class="cls-1" d="M350.15,471.06q14-11.4,18.44-30.89a286.71,286.71,0,0,0-31-26.69q-49.78-36.66-102.46-37.29,5.55,55.4,74.52,107c16.54.45,30-3.55,40.53-12.1Z"/><path class="cls-18" d="M367,439.92,377.09,422a76.64,76.64,0,0,0-33.24-2A217.9,217.9,0,0,1,367,439.92Z"/><path d="M232.24,373.6l.4,2.85q5.47,56.3,75.47,108.71l.65.5h.8q25.79.75,42.18-12.64,14.47-11.77,19.19-31.89l14.94-26.54-3.15-.8c-15.54-4.25-30.39-5.2-44.58-2.95q-50.08-36.59-103-37.14l-2.9-.1ZM342.5,415.33a99.17,99.17,0,0,1,35.84,2.45L367.49,437a294.3,294.3,0,0,0-25-21.69Zm-6.4.2.85.6s3.7,2.85,11.15,8.5c8.15,6.45,14.19,11.5,18,15.24q-4.27,18.44-17.54,29.24-14.92,12-38.13,11.6-65.52-49.26-72.52-102,50.38,1.57,98.16,36.79Z"/><path class="cls-47" d="M342.6,469.61c7.35-5.95,12.15-14,14.49-24.29a224.67,224.67,0,0,0-24.39-21Q293.5,395.47,252.09,395q4.42,43.56,58.63,84.12c13,.35,23.64-2.8,31.89-9.55Z"/><path class="cls-6" d="M349.1,465.16c15.44-.15,26.64-2.15,33.49-6q-21.67-21.67-63-29.49,3.75,11.77,29.49,35.49Z"/><path class="cls-18" d="M346.5,464.91q19.57,0,28.59-4.5-17-17.24-51.48-23.79c1.7,6.25,9.35,15.64,22.89,28.29Z"/><path d="M316.11,426.48l1.9,4.2q5.77,13,28.59,34.24l2.55,2.75q24-.22,34.69-6.3l3-1.6-2.45-2.35q-22.12-22.19-64.27-30.19l-4-.75Zm33,36.19h-.45q-20.39-19-26-29.84,35.54,7.42,55.63,25.64-10,4-29.14,4.2Z"/><path class="cls-6" d="M290.07,486.66c5.65-4.35,10.85-11.65,15.54-22l-29.54-24.49q-3,24.14,14,46.48Z"/><path class="cls-18" d="M306.16,463.36l-24.09-18.69q-1.87,20.62,12.2,38.38,6.6-6.07,11.9-19.69Z"/><path d="M274.28,436.73l-.6,3Q270.45,465,288.07,488.2l1.55,2,2-1.6q8.92-6.82,16.64-23.69l-34-28.24ZM303,464.41c-3.85,8.25-8,14.44-12.49,18.59q-13.49-18.89-12.3-39.08L303,464.41Z"/><path class="cls-19" d="M481.74,434.63A24.8,24.8,0,0,0,466,455.72c-.15,4.4,1.2,7.65,4,9.8s6.35,2.55,10.5,1.15a24.8,24.8,0,0,0,15.79-21.09c.15-4.4-1.15-7.7-4-9.85s-6.4-2.5-10.55-1.1Z"/><path class="cls-20" d="M490.34,440.07c-2.1-1.55-4.7-1.85-7.75-.8a16.84,16.84,0,0,0-8.1,6.1,16.66,16.66,0,0,0-3.55,9.45q-.22,4.87,3,7.2c2,1.6,4.65,1.9,7.7.85a16.84,16.84,0,0,0,8.1-6.1,16.66,16.66,0,0,0,3.55-9.45c.15-3.25-.85-5.65-2.95-7.25Z"/><path class="cls-19" d="M213.25,485.31c5.65-.45,11.5.9,17.64,4s10.7,7.15,13.64,12,3.45,9.15,1.5,12.89-5.7,5.85-11.35,6.3-11.55-.95-17.69-4.1-10.65-7.1-13.59-11.95-3.5-9.15-1.6-12.89,5.75-5.85,11.45-6.3Z"/><path class="cls-20" d="M215.05,489.3c-4.55.35-7.65,2-9.2,5s-1.1,6.5,1.3,10.4a29.56,29.56,0,0,0,25.09,12.84c4.55-.35,7.6-2,9.15-5s1.1-6.45-1.25-10.3a25.75,25.75,0,0,0-10.95-9.65,26.2,26.2,0,0,0-14.14-3.25Z"/><polygon class="cls-44" points="457.3 543.08 449.96 531.24 437.21 533.54 444.56 545.38 457.3 543.08 457.3 543.08"/><polygon class="cls-48" points="449.96 531.24 437.21 533.54 444.56 545.38 457.31 543.08 449.96 531.24 449.96 531.24"/><polygon class="cls-44" points="484.54 553.28 490.99 547.58 486.49 540.03 480.05 545.73 484.54 553.28 484.54 553.28"/><polygon class="cls-48" points="490.99 547.58 486.49 540.03 480.05 545.73 484.54 553.28 490.99 547.58 490.99 547.58"/><polygon class="cls-44" points="518.18 548.48 523.48 545.98 519.38 542.83 514.08 545.33 518.18 548.48 518.18 548.48"/><polygon class="cls-48" points="523.48 545.98 519.38 542.83 514.08 545.33 518.18 548.48 523.48 545.98 523.48 545.98"/><path class="cls-19" d="M451.86,461.47a16.78,16.78,0,0,0-9,4.45,17.38,17.38,0,0,0-5.6,8.55c-.85,3.15-.4,5.65,1.3,7.55s4.15,2.65,7.4,2.2a19.26,19.26,0,0,0,14.64-13c.85-3.15.4-5.65-1.3-7.6s-4.15-2.6-7.4-2.15Z"/><path class="cls-20" d="M457.85,465.36c-1.45-1.6-3.45-2.2-6.1-1.85a16,16,0,0,0-12.2,10.8c-.7,2.65-.35,4.75,1.1,6.35s3.45,2.15,6.1,1.75a15.8,15.8,0,0,0,12.15-10.8c.7-2.55.35-4.65-1-6.25Z"/></svg>