<?xml version="1.0" encoding="utf-8"?>
<!-- Generator: Adobe Illustrator 20.0.0, SVG Export Plug-In . SVG Version: 6.00 Build 0)  -->
<svg version="1.1" id="svg3430" xmlns="http://www.w3.org/2000/svg" xmlns:xlink="http://www.w3.org/1999/xlink" x="0px" y="0px"
	 viewBox="0 0 528.3 582" style="enable-background:new 0 0 528.3 582;" xml:space="preserve">
<style type="text/css">
	.st0{fill:#777BB3;}
	.st1{clip-path:url(#SVGID_2_);}
	.st2{fill:#FFFFFF;}
</style>
<rect class="st0" width="528.3" height="582"/>
<g id="g3438" transform="matrix(1.25 0 0 -1.25 -4.4 394.3)">
	<g id="g3476">
		<g>
			<defs>
				<rect id="SVGID_1_" x="-148.2" y="-119.9" width="720" height="405"/>
			</defs>
			<clipPath id="SVGID_2_">
				<use xlink:href="#SVGID_1_"  style="overflow:visible;"/>
			</clipPath>
			<g id="g3478" class="st1">
				<g id="g3484" transform="translate(161.73 145.31)">
					<path id="path3486" d="M-76.2-79.4c12.1,0,21.1,2.2,26.8,6.6c5.6,4.3,9.5,11.9,11.6,22.4c1.9,9.8,1.2,16.7-2.2,20.3
						c-3.4,3.8-10.8,5.7-21.9,5.7h-19.3l-10.7-55H-76.2z M-139.2-147.1c-0.9,0-1.7,0.4-2.3,1.1c-0.6,0.7-0.8,1.6-0.6,2.5l28.3,145.8
						c0.3,1.4,1.5,2.4,2.9,2.4h61c19.2,0,33.5-5.2,42.5-15.5c9-10.3,11.8-24.8,8.3-42.9C-0.6-61.2-3-68-6.5-74.2
						c-3.4-6.2-8-11.9-13.5-16.9c-6.6-6.2-14.1-10.7-22.2-13.3c-8-2.6-18.3-3.9-30.5-3.9h-24.7l-7.1-36.3c-0.3-1.4-1.5-2.4-2.9-2.4
						H-139.2L-139.2-147.1z"/>
				</g>
				<g id="g3488" transform="translate(159.22 197.31)">
					<path id="path3490" class="st2" d="M-76.2-79.4h16.8c13.4,0,18.1-2.9,19.7-4.7c2.6-2.9,3.1-9.1,1.4-17.8
						c-1.9-9.8-5.4-16.7-10.5-20.5c-5.2-4-13.6-6-24.9-6h-12L-76.2-79.4z M-47.3-44.4h-61.1c-2.9,0-5.3-2-5.9-4.9L-142.6-195
						c-0.4-1.8,0.1-3.6,1.3-5c1.1-1.4,2.8-2.2,4.6-2.2h31.8c2.9,0,5.3,2,5.9,4.9l6.6,33.9h22.3c12.6,0,23.2,1.4,31.5,4.1
						c8.5,2.8,16.4,7.5,23.4,14c5.8,5.3,10.5,11.2,14.1,17.7c3.6,6.4,6.2,13.6,7.7,21.3C10-87.2,7-71.9-2.6-60.9
						C-12.2-49.9-27.3-44.4-47.3-44.4 M-93-134.4h19.3c12.8,0,22.3,2.4,28.6,7.2c6.3,4.8,10.5,12.9,12.7,24.2
						c2.1,10.8,1.1,18.5-2.9,22.9c-4,4.5-12.1,6.7-24.1,6.7h-21.8L-93-134.4 M-47.3-50.4c18.4,0,31.8-4.8,40.2-14.5
						c8.4-9.6,11-23.1,7.6-40.4c-1.4-7.1-3.7-13.6-7-19.5c-3.3-5.9-7.6-11.3-12.9-16.2c-6.3-5.9-13.4-10.2-21.1-12.7
						c-7.8-2.5-17.6-3.8-29.6-3.8h-27.2l-7.5-38.8h-31.7l28.3,145.8H-47.3"/>
				</g>
				<g id="g3492" transform="translate(311.58 116.31)">
					<path id="path3494" d="M-76.2-79.4c-0.9,0-1.7,0.4-2.3,1.1c-0.6,0.7-0.8,1.6-0.6,2.5l12.5,64.5c1.2,6.1,0.9,10.5-0.8,12.4
						c-1.1,1.1-4.2,3-13.6,3h-22.7l-15.8-81.1c-0.3-1.4-1.5-2.4-2.9-2.4h-31.5c-0.9,0-1.7,0.4-2.3,1.1c-0.6,0.7-0.8,1.6-0.6,2.5
						L-128.5,70c0.3,1.4,1.5,2.4,2.9,2.4h31.5c0.9,0,1.7-0.4,2.3-1.1c0.6-0.7,0.8-1.6,0.6-2.5L-98,33.6h24.4
						c18.6,0,31.2-3.3,38.6-10c7.5-6.9,9.8-17.9,6.9-32.7l-13.2-67.8c-0.3-1.4-1.5-2.4-2.9-2.4H-76.2z"/>
				</g>
				<g id="g3496" transform="translate(293.66 271.06)">
					<path id="path3498" class="st2" d="M-76.2-79.4h-31.5c-2.9,0-5.3-2-5.9-4.9L-141.9-230c-0.3-1.8,0.1-3.6,1.3-5
						c1.1-1.4,2.8-2.2,4.6-2.2h31.5c2.9,0,5.3,2,5.9,4.9l15.3,78.6h20.2c9.4,0,11.3-2,11.4-2.1c0.6-0.6,1.3-3.4,0.1-9.8L-64.1-230
						c-0.3-1.8,0.1-3.6,1.3-5c1.1-1.4,2.8-2.2,4.6-2.2h32c2.9,0,5.3,2,5.9,4.9l13.2,67.8c3.1,15.9,0.4,27.9-7.9,35.5
						c-7.9,7.3-21.2,10.8-40.6,10.8h-20.8l6.1,31.6c0.3,1.8-0.1,3.6-1.3,5C-72.7-80.2-74.4-79.4-76.2-79.4 M-76.2-85.4l-7.5-38.8
						h28.1c17.7,0,29.8-3.1,36.5-9.2c6.7-6.2,8.7-16.1,6-29.9l-13.2-67.8h-32l12.5,64.5c1.4,7.3,0.9,12.3-1.6,15
						c-2.5,2.7-7.8,4-15.8,4h-25.2l-16.2-83.5H-136l28.3,145.8H-76.2"/>
				</g>
				<g id="g3500" transform="translate(409.55 145.31)">
					<path id="path3502" d="M-76.2-79.4c12.1,0,21.1,2.2,26.8,6.6c5.6,4.3,9.5,11.9,11.6,22.4c1.9,9.8,1.2,16.7-2.2,20.3
						c-3.4,3.8-10.8,5.7-21.9,5.7h-19.3l-10.7-55H-76.2z M-139.2-147.1c-0.9,0-1.7,0.4-2.3,1.1c-0.6,0.7-0.8,1.6-0.6,2.5l28.3,145.8
						c0.3,1.4,1.5,2.4,2.9,2.4h61c19.2,0,33.5-5.2,42.5-15.5c9-10.3,11.8-24.8,8.3-42.9C-0.6-61.2-3-68-6.5-74.2
						c-3.4-6.2-8-11.9-13.5-16.9c-6.6-6.2-14.1-10.7-22.3-13.3c-8-2.6-18.3-3.9-30.5-3.9h-24.7l-7.1-36.3c-0.3-1.4-1.5-2.4-2.9-2.4
						H-139.2z"/>
				</g>
				<g id="g3504" transform="translate(407.04 197.31)">
					<path id="path3506" class="st2" d="M-76.2-79.4h16.8c13.4,0,18.1-2.9,19.7-4.7c2.6-2.9,3.1-9.1,1.4-17.8
						c-1.9-9.8-5.4-16.7-10.5-20.5c-5.2-4-13.6-6-24.9-6h-12L-76.2-79.4z M-47.3-44.4h-61.1c-2.9,0-5.3-2-5.9-4.9L-142.6-195
						c-0.3-1.8,0.1-3.6,1.3-5c1.1-1.4,2.8-2.2,4.6-2.2h31.8c2.9,0,5.3,2,5.9,4.9l6.6,33.9h22.3c12.6,0,23.2,1.4,31.5,4.1
						c8.5,2.8,16.4,7.5,23.4,14c5.8,5.3,10.5,11.2,14.1,17.7c3.6,6.4,6.2,13.6,7.7,21.3C10-87.2,7-71.9-2.6-60.9
						C-12.2-49.9-27.3-44.4-47.3-44.4 M-93-134.4h19.3c12.8,0,22.3,2.4,28.6,7.2c6.3,4.8,10.5,12.9,12.7,24.2
						c2.1,10.8,1.1,18.5-2.9,22.9c-4,4.5-12.1,6.7-24.1,6.7h-21.8L-93-134.4 M-47.3-50.4c18.4,0,31.8-4.8,40.2-14.5
						c8.4-9.6,11-23.1,7.6-40.4c-1.4-7.1-3.7-13.6-7-19.5c-3.3-5.9-7.6-11.3-12.9-16.2c-6.3-5.9-13.4-10.2-21.1-12.7
						c-7.8-2.5-17.6-3.8-29.6-3.8h-27.2l-7.5-38.8h-31.7l28.3,145.8H-47.3"/>
				</g>
			</g>
		</g>
	</g>
</g>
</svg>
