<?xml version="1.0" encoding="utf-8"?>
<!-- Generator: Adobe Illustrator 16.0.0, SVG Export Plug-In . SVG Version: 6.00 Build 0)  -->
<!DOCTYPE svg PUBLIC "-//W3C//DTD SVG 1.1//EN" "http://www.w3.org/Graphics/SVG/1.1/DTD/svg11.dtd">
<svg version="1.1" id="Layer_1" xmlns="http://www.w3.org/2000/svg" xmlns:xlink="http://www.w3.org/1999/xlink" x="0px" y="0px"
	 width="600px" height="600px" viewBox="0 0 600 600" enable-background="new 0 0 600 600" xml:space="preserve">
<g>
	<path fill="#222C37" d="M386.008,300.017L487.506,124.75l49.047,175.267l-49.047,175.228L386.008,300.017L386.008,300.017z
		 M336.534,328.479l101.517,175.241l-176.797-45.295L133.529,328.479H336.534L336.534,328.479z M438.026,96.265L336.534,271.531
		H133.529l127.725-129.954L438.026,96.265L438.026,96.265z M582.928,240.372L521.005,10L289.878,71.738l-34.213,60.153
		l-69.425-0.498L17.071,300.033L186.24,468.631h0.008l69.396-0.514l34.261,60.152L521.006,590l61.923-230.33l-35.166-59.654
		L582.928,240.372L582.928,240.372z"/>
</g>
</svg>
